<svg width="14" height="14" viewBox="0 0 14 14" fill="none" xmlns="http://www.w3.org/2000/svg">
<path d="M9.01742 8.06H9.72742C9.65409 8.68667 9.37409 9.2 8.88742 9.6C8.40076 9.99333 7.81076 10.19 7.11742 10.19C6.27076 10.19 5.58409 9.93 5.05742 9.41C4.53742 8.88333 4.27742 8.19333 4.27742 7.34C4.27742 6.48667 4.53742 5.8 5.05742 5.28C5.58409 4.75333 6.27076 4.49 7.11742 4.49C7.79076 4.49 8.36076 4.67 8.82742 5.03C9.30076 5.39 9.58409 5.86 9.67742 6.44H8.95742C8.69076 5.58 8.07076 5.15 7.09742 5.15C6.47076 5.15 5.96076 5.35 5.56742 5.75C5.18076 6.15 4.98742 6.68 4.98742 7.34C4.98742 8.00667 5.17742 8.53667 5.55742 8.93C5.94409 9.31667 6.46409 9.51 7.11742 9.51C7.60409 9.51 8.01742 9.38 8.35742 9.12C8.70409 8.85333 8.92409 8.5 9.01742 8.06Z" fill="#707070"/>
<circle cx="7" cy="7" r="6.5" stroke="#707070"/>
</svg>
