<svg width="133" height="44" viewBox="0 0 133 44" fill="none" xmlns="http://www.w3.org/2000/svg">
<g clip-path="url(#clip0_175_67)">
<path d="M8.57077 0H44.8435V43.2281H38.7215V5.71228H14.6927V23.1579C14.6927 26.4 14.5397 29.3333 14.2336 31.8035C13.9275 34.2737 13.4684 36.2807 12.8562 37.8246C12.244 39.3684 11.4787 40.6035 10.5604 41.5298C9.64212 42.4561 8.72382 43.0737 7.65247 43.5368C6.58113 43.8456 5.50978 44.1544 4.13234 44.1544C2.90794 44.1544 1.53049 44 0 43.6912V38.7509C0.765247 38.9053 1.68354 39.0597 2.75489 39.0597C5.05063 39.0597 6.58113 37.6702 7.34637 34.8912C8.11162 32.1123 8.57077 27.6351 8.57077 21.1509V0Z" fill="white"/>
<path d="M96.8799 0H103.002V13.8947C103.002 16.5193 104.073 18.5263 106.063 19.7614C108.052 20.9965 110.501 21.614 113.562 21.614C118.307 21.614 122.745 21.1509 126.725 20.2246V0H132.846V43.2281H126.725V25.1649C122.133 26.4 117.695 27.0175 113.103 27.0175C111.113 27.0175 109.277 26.8632 107.44 26.4C105.604 25.9368 103.92 25.3193 102.237 24.5474C100.553 23.6211 99.1756 22.2316 98.2573 20.5333C97.339 18.6807 96.7268 16.5193 96.7268 13.8947V0H96.8799Z" fill="white"/>
<path d="M92.1355 0H85.2483L71.1677 29.4877L58.7707 4.78596L56.475 0H49.4347L72.086 43.2281H78.208L74.3818 35.8175L92.1355 0Z" fill="white"/>
</g>
<defs>
<clipPath id="clip0_175_67">
<rect width="133" height="44" fill="white"/>
</clipPath>
</defs>
</svg>
